<svg xmlns="http://www.w3.org/2000/svg" xmlns:xlink="http://www.w3.org/1999/xlink" viewBox="0 0 24 24" width="128px" height="128px"><defs><style>.cls-1{fill:url(#linear-gradient);}.cls-2{fill:#fff;}</style><linearGradient id="linear-gradient" x1="4.1" y1="4.1" x2="19.9" y2="19.9" gradientUnits="userSpaceOnUse"><stop offset="0" stop-color="#f3281a"/><stop offset="1" stop-color="#c71a2c"/></linearGradient></defs><path class="cls-1" d="M4.1,19.9c-1.53-1.53-2.1-4.03-2.1-7.9s.57-6.36,2.1-7.9c1.53-1.53,4.03-2.1,7.9-2.1s6.36,.57,7.9,2.1c1.53,1.53,2.1,4.03,2.1,7.9s-.57,6.36-2.1,7.9c-1.53,1.53-4.03,2.1-7.9,2.1s-6.36-.57-7.9-2.1Z"/><path class="cls-2" d="M18.48,5.52c-1.05-1.05-3.05-1.52-6.48-1.52s-5.43,.47-6.48,1.52c-1.05,1.05-1.52,3.05-1.52,6.48,0,1.81,.13,3.21,.41,4.3l2.04-2.72c.18-.23,.41-.35,.7-.35s.53,.12,.7,.35l4.47,5.97c.16,.19,.35,.31,.58,.35,.23,.04,.45-.02,.64-.18,.18-.14,.29-.3,.35-.5s.04-.39-.06-.58l-3.28-4.33,4.06-5.41c.18-.23,.41-.35,.7-.35s.53,.12,.7,.35l3.88,5.18c.05-.63,.07-1.31,.07-2.08,0-3.43-.47-5.43-1.52-6.48Zm-9.48,5.51c-1.1,0-2-.9-2-2s.9-2,2-2,2,.9,2,2-.9,2-2,2Z"/></svg>
